# Blender v2.79 (sub 0) OBJ File: ''
# www.blender.org
mtllib untitled.mtl
o Cube
v -0.311748 2.414353 -0.280516
v 0.266466 5.672126 -0.808481
v 1.055863 2.246317 -0.098326
v 0.291071 3.218394 1.069583
v -0.955144 3.022036 -0.301628
v 0.424529 3.845693 -0.986371
v 0.338332 2.451439 0.392860
v -0.484301 5.772602 -0.255173
v 0.952278 4.128155 0.355784
v -0.424400 3.904222 0.937916
v -1.019144 3.741186 0.238417
v -0.227462 2.115882 -0.816561
v 0.860343 0.899038 0.144467
v -0.116955 0.847282 -0.699724
v 0.919494 3.052156 -0.656240
v 0.159840 2.631379 0.875483
v 0.775814 3.588916 0.914265
v -0.817165 2.579820 -0.134061
v -0.884675 3.662973 0.779147
v -0.720732 2.521799 -0.702080
v 0.739844 5.369021 -0.316735
v 0.195605 5.101264 -1.189520
v -0.301261 4.415677 0.644334
v -0.930246 5.251575 -0.359232
v 0.013422 2.433088 0.056933
v -0.108377 5.722449 -0.529870
v 1.016790 3.180821 0.160651
v -0.063782 3.566010 1.021344
v -0.978122 3.372353 -0.016884
v 0.107227 2.980170 -0.873305
v 0.646000 1.132082 -0.587641
v 0.786502 2.880854 0.630182
v -0.725790 2.724204 0.744540
v -0.592016 1.396479 -0.538735
v 0.815658 4.574912 -0.705062
v 0.476834 4.364307 0.664564
v -0.720025 4.127462 0.446844
v -0.680003 4.755208 -1.110920
vn -0.6867 -0.2663 0.6765
vn -0.2276 -0.9352 0.2712
vn 0.0334 -0.2544 0.9665
vn -0.4579 0.5322 -0.7121
vn 0.3152 0.9129 0.2592
vn 0.7349 0.3110 -0.6027
vn 0.9885 0.0773 -0.1299
vn 0.9236 -0.0660 0.3775
vn 0.8942 -0.1425 -0.4244
vn 0.1157 0.2515 0.9609
vn -0.3439 -0.2246 0.9117
vn 0.4999 -0.3160 0.8064
vn -0.9546 -0.2231 0.1974
vn 0.0236 0.6315 -0.7750
vn -0.9578 -0.2376 0.1618
vn 0.2700 -0.2214 -0.9371
vn 0.0560 -0.1495 -0.9872
vn 0.5685 0.0124 -0.8226
vn -0.6691 -0.3314 0.6652
vn 0.4775 -0.7507 0.4565
vn -0.2231 -0.9375 0.2670
vn -0.4528 0.5306 -0.7165
vn -0.5971 0.3857 0.7033
vn 0.5504 0.5116 0.6598
vn 0.9861 0.0952 -0.1359
vn 0.6327 0.4475 0.6320
vn 0.9529 0.0024 0.3034
vn 0.2174 0.4460 0.8682
vn -0.5246 0.6105 0.5934
vn -0.2902 -0.0741 0.9541
vn -0.9487 -0.2444 0.2006
vn -0.7634 0.2760 0.5840
vn -0.9880 -0.0030 -0.1545
vn 0.0555 -0.0868 -0.9947
vn -0.3563 -0.1740 -0.9180
vn -0.2120 0.0179 -0.9771
vn 0.0290 -0.4324 0.9012
vn -0.2111 -0.9608 0.1798
vn 0.1784 -0.2878 0.9409
vn -0.3089 0.6172 -0.7236
vn 0.1018 0.6813 0.7249
vn 0.7735 0.3365 -0.5371
vn 0.9898 0.0634 -0.1279
vn 0.9118 -0.0654 0.4054
vn 0.9232 -0.1938 -0.3320
vn 0.1096 0.3427 0.9330
vn -0.1631 -0.1901 0.9681
vn 0.4626 -0.3698 0.8057
vn -0.9668 -0.2165 0.1361
vn -0.9504 -0.0391 -0.3085
vn -0.9250 -0.1561 -0.3465
vn 0.2634 -0.0719 -0.9620
vn -0.0310 -0.1461 -0.9888
vn 0.6059 -0.0182 -0.7953
vn -0.8732 -0.4761 0.1041
vn -0.2658 -0.2388 0.9340
vn -0.1382 -0.9566 0.2565
vn -0.4906 0.6431 -0.5880
vn -0.6098 0.3834 0.6937
vn 0.0246 0.6662 0.7454
vn 0.9923 0.1161 -0.0436
vn 0.6328 0.4499 0.6302
vn 0.9208 -0.1332 0.3666
vn 0.0031 0.4063 0.9137
vn -0.6255 0.4962 0.6021
vn -0.2911 -0.0844 0.9530
vn -0.9695 -0.1706 0.1761
vn -0.8263 0.4907 0.2765
vn -0.9541 -0.0300 -0.2979
vn 0.1806 -0.0986 -0.9786
vn -0.4406 -0.1203 -0.8896
vn -0.1043 -0.1772 -0.9786
usemtl Material
s off
f 14//1 25//1 1//1
f 25//2 18//2 1//2
f 1//3 34//3 14//3
f 22//4 26//4 2//4
f 26//5 21//5 2//5
f 2//6 35//6 22//6
f 15//7 27//7 3//7
f 27//8 13//8 3//8
f 3//9 31//9 15//9
f 17//10 28//10 4//10
f 28//11 16//11 4//11
f 4//12 32//12 17//12
f 18//13 29//13 5//13
f 29//14 20//14 5//14
f 5//15 34//15 18//15
f 15//16 30//16 6//16
f 30//17 22//17 6//17
f 6//18 35//18 15//18
f 25//19 13//19 7//19
f 7//20 32//20 16//20
f 16//21 25//21 7//21
f 26//22 24//22 8//22
f 8//23 37//23 23//23
f 23//24 26//24 8//24
f 27//25 21//25 9//25
f 9//26 36//26 17//26
f 17//27 27//27 9//27
f 28//28 23//28 10//28
f 10//29 37//29 19//29
f 19//30 28//30 10//30
f 29//31 19//31 11//31
f 11//32 37//32 24//32
f 24//33 29//33 11//33
f 30//34 14//34 12//34
f 12//35 34//35 20//35
f 20//36 30//36 12//36
f 14//37 31//37 25//37
f 25//38 33//38 18//38
f 1//39 18//39 34//39
f 22//40 38//40 26//40
f 26//41 36//41 21//41
f 2//42 21//42 35//42
f 15//43 35//43 27//43
f 27//44 32//44 13//44
f 3//45 13//45 31//45
f 17//46 36//46 28//46
f 28//47 33//47 16//47
f 4//48 16//48 32//48
f 18//49 33//49 29//49
f 29//50 38//50 20//50
f 5//51 20//51 34//51
f 15//52 31//52 30//52
f 30//53 38//53 22//53
f 6//54 22//54 35//54
f 25//55 31//55 13//55
f 7//56 13//56 32//56
f 16//57 33//57 25//57
f 26//58 38//58 24//58
f 8//59 24//59 37//59
f 23//60 36//60 26//60
f 27//61 35//61 21//61
f 9//62 21//62 36//62
f 17//63 32//63 27//63
f 28//64 36//64 23//64
f 10//65 23//65 37//65
f 19//66 33//66 28//66
f 29//67 33//67 19//67
f 11//68 19//68 37//68
f 24//69 38//69 29//69
f 30//70 31//70 14//70
f 12//71 14//71 34//71
f 20//72 38//72 30//72
